<?xml version="1.0" standalone="no"?>
<svg xmlns="http://www.w3.org/2000/svg" width="156.952" height="180.21" viewBox="43.048 24 156.952 180.21" style="isolation:isolate">
  <path fill="#170026" stroke="#000" stroke-linecap="round" stroke-linejoin="round" stroke-miterlimit="3" stroke-width="4" d="M102 63.646v55.426l-48 13.856v13.857l24 13.856 24-13.856v27.712l48 27.713 48-27.713v-13.856h-24l-24 13.856-24-13.856v-27.713l24-13.856 48 27.713v-27.713l-48-27.713-24 13.856V77.503l-24-13.857z" vector-effect="non-scaling-stroke"/>
  <linearGradient id="a" x1=".1667" x2="1" y1=".2978" y2=".8039" gradientTransform="matrix(144 0 0 138.564 54 49.79)" gradientUnits="userSpaceOnUse">
    <stop offset="2.1739%" stop-color="#90f"/>
    <stop offset="97.8261%" stop-color="red"/>
  </linearGradient>
  <path fill="url(#a)" stroke="#000" stroke-linecap="round" stroke-linejoin="round" stroke-miterlimit="3" stroke-width="4" d="M102 49.79v55.425l-48 27.713 24 13.857 24-13.857v27.713l48 27.713 48-27.713-24-13.856-24 13.856-24-13.856v-27.713l24-13.857 48 27.713v-27.713l-48-27.712-24 13.856V63.646L102 49.79z" vector-effect="non-scaling-stroke"/>
  <path fill-rule="evenodd" d="M68.808 68.96q-1.536 0-2.496-.496t-1.376-1.144q-.416-.648-.416-1.08 0-.16.128-.272.128-.112.288-.112h2.144q.16 0 .256.072t.176.248q.16.352.416.552.256.2.8.2.688 0 1.024-.344.336-.344.336-1.144v-1.072q-.848.88-2.32.88-1.616 0-2.472-.936-.856-.936-.936-2.76l-.016-.432q0-1.952.872-3.056t2.552-1.104q.816 0 1.44.312t1.04.84v-.576q0-.176.112-.296t.288-.12H72.6q.176 0 .296.12t.12.296V65.2q0 1.84-1.104 2.8-1.104.96-3.104.96zm-.128-5.872q.688 0 1.024-.416.336-.416.384-1.056.016-.112.016-.48 0-.384-.016-.48-.048-.656-.384-1.064-.336-.408-1.024-.408-.704 0-1.024.424-.32.424-.352 1.176l-.016.352q0 .912.304 1.432.304.52 1.088.52zM78.76 65.6q-1.952 0-3.072-1.048t-1.152-3.048v-.496q.064-1.904 1.184-2.976 1.12-1.072 3.024-1.072 1.376 0 2.328.552t1.424 1.52q.472.968.472 2.2v.4q0 .176-.12.296t-.296.12H77.48v.096q.016.72.336 1.16.32.44.912.44.384 0 .616-.152.232-.152.44-.392.144-.16.232-.2.088-.04.28-.04h2.096q.144 0 .248.088.104.088.104.216 0 .416-.472.976t-1.376.96q-.904.4-2.136.4zm-1.28-5.184h2.544v-.032q0-.768-.336-1.192-.336-.424-.944-.424-.608 0-.936.424-.328.424-.328 1.192v.032zM88.312 65.6q-1.952 0-3.072-1.048t-1.152-3.048v-.496q.064-1.904 1.184-2.976 1.12-1.072 3.024-1.072 1.376 0 2.328.552t1.424 1.52q.472.968.472 2.2v.4q0 .176-.12.296t-.296.12h-5.072v.096q.016.72.336 1.16.32.44.912.44.384 0 .616-.152.232-.152.44-.392.144-.16.232-.2.088-.04.28-.04h2.096q.144 0 .248.088.104.088.104.216 0 .416-.472.976t-1.376.96q-.904.4-2.136.4zm-1.28-5.184h2.544v-.032q0-.768-.336-1.192-.336-.424-.944-.424-.608 0-.936.424-.328.424-.328 1.192v.032zM44.104 55.96q-.144 0-.256-.104-.112-.104-.112-.264 0-.128.096-.24l2.656-3.664-2.416-3.44q-.096-.128-.096-.24 0-.16.112-.264.112-.104.256-.104h2.064q.192 0 .288.08.096.08.192.208l1.408 1.968 1.424-1.968q.016-.016.08-.096t.168-.136q.104-.056.232-.056h1.968q.144 0 .256.104.112.104.112.248 0 .128-.096.256l-2.464 3.44 2.704 3.664q.08.112.08.24 0 .16-.104.264-.104.104-.264.104h-2.16q-.272 0-.448-.256l-1.552-2.112-1.568 2.112q-.096.128-.192.192t-.272.064h-2.096zm13.712.16q-1.952 0-3.072-1.048t-1.152-3.048v-.496q.064-1.904 1.184-2.976 1.12-1.072 3.024-1.072 1.376 0 2.328.552t1.424 1.52q.472.968.472 2.2v.4q0 .176-.12.296t-.296.12h-5.072v.096q.016.72.336 1.16.32.44.912.44.384 0 .616-.152.232-.152.44-.392.144-.16.232-.2.088-.04.28-.04h2.096q.144 0 .248.088.104.088.104.216 0 .416-.472.976t-1.376.96q-.904.4-2.136.4zm-1.28-5.184h2.544v-.032q0-.768-.336-1.192-.336-.424-.944-.424-.608 0-.936.424-.328.424-.328 1.192v.032zm7.328 5.024q-.16 0-.28-.12-.12-.12-.12-.28v-7.52q0-.176.12-.288.12-.112.28-.112h1.968q.176 0 .288.112.112.112.112.288v.608q.432-.528 1.112-.848.68-.32 1.56-.32.912 0 1.624.416.712.416 1.12 1.232.408.816.408 1.968v4.464q0 .16-.112.28-.112.12-.288.12h-2.128q-.176 0-.296-.112t-.12-.288v-4.368q0-.72-.344-1.104-.344-.384-1-.384-.64 0-1.008.392t-.368 1.096v4.368q0 .16-.112.28-.112.12-.288.12h-2.128zm13.936.16q-2.016 0-3.096-.936t-1.176-2.664q-.016-.208-.016-.72t.016-.72q.096-1.696 1.208-2.648 1.112-.952 3.064-.952t3.064.952q1.112.952 1.208 2.648.032.416.032.72t-.032.72q-.096 1.728-1.176 2.664-1.08.936-3.096.936zm0-2.016q.656 0 .976-.408.32-.408.368-1.256.016-.16.016-.64t-.016-.64q-.048-.832-.368-1.248-.32-.416-.976-.416-.656 0-.976.416-.32.416-.368 1.248l-.016.64.016.64q.048.848.368 1.256.32.408.976.408zm6.224 1.856q-.16 0-.28-.12-.12-.12-.12-.28v-7.52q0-.176.12-.288.12-.112.28-.112h1.968q.176 0 .288.112.112.112.112.288v.608q.432-.528 1.112-.848.68-.32 1.56-.32.912 0 1.624.416.712.416 1.12 1.232.408.816.408 1.968v4.464q0 .16-.112.28-.112.12-.288.12h-2.128q-.176 0-.296-.112t-.12-.288v-4.368q0-.72-.344-1.104-.344-.384-1-.384-.64 0-1.008.392t-.368 1.096v4.368q0 .16-.112.28-.112.12-.288.12h-2.128z"/>
</svg>
